<mxfile host="app.diagrams.net" modified="2022-02-28T05:54:43.477Z" agent="5.0 (Windows NT 10.0; Win64; x64) AppleWebKit/537.36 (KHTML, like Gecko) Chrome/98.0.4758.102 Safari/537.36 Edg/98.0.1108.62" etag="XraVizMuFnILEkSJQ88T" version="16.6.4" type="github">
  <diagram name="Page-1" id="42789a77-a242-8287-6e28-9cd8cfd52e62">
    <mxGraphModel dx="1038" dy="579" grid="1" gridSize="10" guides="1" tooltips="1" connect="1" arrows="1" fold="1" page="1" pageScale="1" pageWidth="1100" pageHeight="850" background="none" math="0" shadow="0">
      <root>
        <mxCell id="0" />
        <mxCell id="1" parent="0" />
        <mxCell id="1ea317790d2ca983-3" value="Stack" style="ellipse;whiteSpace=wrap;html=1;rounded=0;shadow=1;comic=0;labelBackgroundColor=none;strokeWidth=1;fontFamily=Verdana;fontSize=12;align=center;" parent="1" vertex="1">
          <mxGeometry x="840" y="100" width="75" height="50" as="geometry" />
        </mxCell>
        <mxCell id="1ea317790d2ca983-4" value="Postfix" style="ellipse;whiteSpace=wrap;html=1;rounded=0;shadow=1;comic=0;labelBackgroundColor=none;strokeWidth=1;fontFamily=Verdana;fontSize=12;align=center;" parent="1" vertex="1">
          <mxGeometry x="840" y="195" width="75" height="50" as="geometry" />
        </mxCell>
        <mxCell id="1ea317790d2ca983-17" value="relation" style="edgeStyle=none;rounded=1;html=1;labelBackgroundColor=none;startArrow=none;startFill=0;startSize=5;endArrow=classicThin;endFill=1;endSize=5;jettySize=auto;orthogonalLoop=1;strokeColor=#B3B3B3;strokeWidth=1;fontFamily=Verdana;fontSize=12" parent="1" source="1ea317790d2ca983-5" target="1ea317790d2ca983-8" edge="1">
          <mxGeometry relative="1" as="geometry" />
        </mxCell>
        <mxCell id="1ea317790d2ca983-5" value="&lt;span&gt;Node 9&lt;/span&gt;" style="ellipse;whiteSpace=wrap;html=1;rounded=0;shadow=1;comic=0;labelBackgroundColor=none;strokeWidth=1;fontFamily=Verdana;fontSize=12;align=center;" parent="1" vertex="1">
          <mxGeometry x="840" y="450" width="75" height="50" as="geometry" />
        </mxCell>
        <mxCell id="1ea317790d2ca983-8" value="End node" style="ellipse;whiteSpace=wrap;html=1;rounded=0;shadow=1;comic=0;labelBackgroundColor=none;strokeWidth=1;fontFamily=Verdana;fontSize=12;align=center;" parent="1" vertex="1">
          <mxGeometry x="610" y="500" width="75" height="50" as="geometry" />
        </mxCell>
        <mxCell id="1ea317790d2ca983-9" value="Monom" style="ellipse;whiteSpace=wrap;html=1;rounded=0;shadow=1;comic=0;labelBackgroundColor=none;strokeWidth=1;fontFamily=Verdana;fontSize=12;align=center;" parent="1" vertex="1">
          <mxGeometry x="210" y="190" width="75" height="50" as="geometry" />
        </mxCell>
        <mxCell id="1ea317790d2ca983-10" value="Node" style="ellipse;whiteSpace=wrap;html=1;rounded=0;shadow=1;comic=0;labelBackgroundColor=none;strokeWidth=1;fontFamily=Verdana;fontSize=12;align=center;" parent="1" vertex="1">
          <mxGeometry x="210" y="320" width="75" height="50" as="geometry" />
        </mxCell>
        <mxCell id="1ea317790d2ca983-11" value="Polinom" style="ellipse;whiteSpace=wrap;html=1;rounded=0;shadow=1;comic=0;labelBackgroundColor=none;strokeWidth=1;fontFamily=Verdana;fontSize=12;align=center;" parent="1" vertex="1">
          <mxGeometry x="210" y="470" width="75" height="50" as="geometry" />
        </mxCell>
        <mxCell id="iuW7hz9HEa-le5su57v6-1" value="Условные обозначения" style="swimlane;" parent="1" vertex="1">
          <mxGeometry width="200" height="330" as="geometry" />
        </mxCell>
        <mxCell id="iuW7hz9HEa-le5su57v6-2" value="" style="endArrow=classic;html=1;rounded=0;" parent="iuW7hz9HEa-le5su57v6-1" edge="1">
          <mxGeometry width="50" height="50" relative="1" as="geometry">
            <mxPoint x="65" y="40" as="sourcePoint" />
            <mxPoint x="135" y="40" as="targetPoint" />
          </mxGeometry>
        </mxCell>
        <mxCell id="iuW7hz9HEa-le5su57v6-3" value="Наследование (от предка к потомку)" style="text;html=1;strokeColor=none;fillColor=none;align=center;verticalAlign=middle;whiteSpace=wrap;rounded=0;" parent="iuW7hz9HEa-le5su57v6-1" vertex="1">
          <mxGeometry y="50" width="200" height="30" as="geometry" />
        </mxCell>
        <mxCell id="iuW7hz9HEa-le5su57v6-4" value="" style="shape=flexArrow;endArrow=classic;html=1;rounded=0;" parent="iuW7hz9HEa-le5su57v6-1" edge="1">
          <mxGeometry width="50" height="50" relative="1" as="geometry">
            <mxPoint x="67.5" y="99.5" as="sourcePoint" />
            <mxPoint x="132.5" y="99.5" as="targetPoint" />
          </mxGeometry>
        </mxCell>
        <mxCell id="iuW7hz9HEa-le5su57v6-5" value="Агрегация (от агрегируемого к агрегатору)" style="text;html=1;strokeColor=none;fillColor=none;align=center;verticalAlign=middle;whiteSpace=wrap;rounded=0;" parent="iuW7hz9HEa-le5su57v6-1" vertex="1">
          <mxGeometry y="120" width="200" height="30" as="geometry" />
        </mxCell>
        <mxCell id="iuW7hz9HEa-le5su57v6-6" value="" style="ellipse;whiteSpace=wrap;html=1;" parent="iuW7hz9HEa-le5su57v6-1" vertex="1">
          <mxGeometry x="85" y="160" width="30" height="20" as="geometry" />
        </mxCell>
        <mxCell id="iuW7hz9HEa-le5su57v6-7" value="Класс или структура" style="text;html=1;strokeColor=none;fillColor=none;align=center;verticalAlign=middle;whiteSpace=wrap;rounded=0;" parent="iuW7hz9HEa-le5su57v6-1" vertex="1">
          <mxGeometry x="40" y="180" width="120" height="30" as="geometry" />
        </mxCell>
        <mxCell id="iuW7hz9HEa-le5su57v6-10" value="" style="rounded=0;whiteSpace=wrap;html=1;" parent="iuW7hz9HEa-le5su57v6-1" vertex="1">
          <mxGeometry x="80" y="210" width="40" height="20" as="geometry" />
        </mxCell>
        <mxCell id="iuW7hz9HEa-le5su57v6-11" value="Комментарий" style="text;html=1;strokeColor=none;fillColor=none;align=center;verticalAlign=middle;whiteSpace=wrap;rounded=0;" parent="iuW7hz9HEa-le5su57v6-1" vertex="1">
          <mxGeometry x="70" y="230" width="60" height="30" as="geometry" />
        </mxCell>
        <mxCell id="iuW7hz9HEa-le5su57v6-13" value="" style="shape=hexagon;perimeter=hexagonPerimeter2;whiteSpace=wrap;html=1;fixedSize=1;" parent="iuW7hz9HEa-le5su57v6-1" vertex="1">
          <mxGeometry x="70" y="260" width="60" height="30" as="geometry" />
        </mxCell>
        <mxCell id="iuW7hz9HEa-le5su57v6-14" value="Абстрактный класс" style="text;html=1;strokeColor=none;fillColor=none;align=center;verticalAlign=middle;whiteSpace=wrap;rounded=0;" parent="iuW7hz9HEa-le5su57v6-1" vertex="1">
          <mxGeometry x="45" y="290" width="110" height="30" as="geometry" />
        </mxCell>
        <mxCell id="iuW7hz9HEa-le5su57v6-8" value="" style="shape=flexArrow;endArrow=classic;html=1;rounded=0;entryX=0.5;entryY=0;entryDx=0;entryDy=0;exitX=0.5;exitY=1;exitDx=0;exitDy=0;" parent="1" source="1ea317790d2ca983-9" target="1ea317790d2ca983-10" edge="1">
          <mxGeometry width="50" height="50" relative="1" as="geometry">
            <mxPoint x="240" y="250" as="sourcePoint" />
            <mxPoint x="330" y="220" as="targetPoint" />
            <Array as="points" />
          </mxGeometry>
        </mxCell>
        <mxCell id="iuW7hz9HEa-le5su57v6-9" value="" style="shape=flexArrow;endArrow=classic;html=1;rounded=0;entryX=0.5;entryY=0;entryDx=0;entryDy=0;exitX=0.5;exitY=1;exitDx=0;exitDy=0;" parent="1" source="1ea317790d2ca983-10" target="1ea317790d2ca983-11" edge="1">
          <mxGeometry width="50" height="50" relative="1" as="geometry">
            <mxPoint x="247" y="380" as="sourcePoint" />
            <mxPoint x="247" y="460" as="targetPoint" />
            <Array as="points" />
          </mxGeometry>
        </mxCell>
        <mxCell id="iuW7hz9HEa-le5su57v6-18" value="Класс Node вложен в Polinom" style="edgeLabel;html=1;align=center;verticalAlign=middle;resizable=0;points=[];" parent="iuW7hz9HEa-le5su57v6-9" vertex="1" connectable="0">
          <mxGeometry x="-0.248" y="-2" relative="1" as="geometry">
            <mxPoint x="2" y="2" as="offset" />
          </mxGeometry>
        </mxCell>
        <mxCell id="iuW7hz9HEa-le5su57v6-15" value="Table" style="shape=hexagon;perimeter=hexagonPerimeter2;whiteSpace=wrap;html=1;fixedSize=1;" parent="1" vertex="1">
          <mxGeometry x="453.75" y="195" width="82.5" height="45" as="geometry" />
        </mxCell>
        <mxCell id="iuW7hz9HEa-le5su57v6-16" value="TableString" style="shape=hexagon;perimeter=hexagonPerimeter2;whiteSpace=wrap;html=1;fixedSize=1;" parent="1" vertex="1">
          <mxGeometry x="446.88" y="80" width="96.25" height="50" as="geometry" />
        </mxCell>
        <mxCell id="iuW7hz9HEa-le5su57v6-19" value="ArrayTable" style="shape=hexagon;perimeter=hexagonPerimeter2;whiteSpace=wrap;html=1;fixedSize=1;" parent="1" vertex="1">
          <mxGeometry x="366.88" y="325" width="80" height="40" as="geometry" />
        </mxCell>
        <mxCell id="iuW7hz9HEa-le5su57v6-20" value="ListTable" style="shape=hexagon;perimeter=hexagonPerimeter2;whiteSpace=wrap;html=1;fixedSize=1;" parent="1" vertex="1">
          <mxGeometry x="536.25" y="330" width="80" height="40" as="geometry" />
        </mxCell>
        <mxCell id="iuW7hz9HEa-le5su57v6-21" value="" style="endArrow=classic;html=1;rounded=0;exitX=0;exitY=0.75;exitDx=0;exitDy=0;entryX=0.625;entryY=0;entryDx=0;entryDy=0;" parent="1" source="iuW7hz9HEa-le5su57v6-15" target="iuW7hz9HEa-le5su57v6-19" edge="1">
          <mxGeometry width="50" height="50" relative="1" as="geometry">
            <mxPoint x="460" y="230" as="sourcePoint" />
            <mxPoint x="420" y="320" as="targetPoint" />
          </mxGeometry>
        </mxCell>
        <mxCell id="iuW7hz9HEa-le5su57v6-22" value="" style="endArrow=classic;html=1;rounded=0;exitX=1;exitY=0.75;exitDx=0;exitDy=0;entryX=0.375;entryY=0;entryDx=0;entryDy=0;" parent="1" source="iuW7hz9HEa-le5su57v6-15" target="iuW7hz9HEa-le5su57v6-20" edge="1">
          <mxGeometry width="50" height="50" relative="1" as="geometry">
            <mxPoint x="602.15" y="230" as="sourcePoint" />
            <mxPoint x="550.3512195121951" y="333.44512195121956" as="targetPoint" />
          </mxGeometry>
        </mxCell>
        <mxCell id="iuW7hz9HEa-le5su57v6-25" value="OrderedArrayTable" style="ellipse;whiteSpace=wrap;html=1;rounded=0;shadow=1;comic=0;labelBackgroundColor=none;strokeWidth=1;fontFamily=Verdana;fontSize=12;align=center;" parent="1" vertex="1">
          <mxGeometry x="285" y="420" width="120" height="50" as="geometry" />
        </mxCell>
        <mxCell id="iuW7hz9HEa-le5su57v6-26" value="UnorderedArrayTable" style="ellipse;whiteSpace=wrap;html=1;rounded=0;shadow=1;comic=0;labelBackgroundColor=none;strokeWidth=1;fontFamily=Verdana;fontSize=12;align=center;" parent="1" vertex="1">
          <mxGeometry x="420" y="420" width="130" height="50" as="geometry" />
        </mxCell>
        <mxCell id="iuW7hz9HEa-le5su57v6-28" value="" style="endArrow=classic;html=1;rounded=0;exitX=0;exitY=0.75;exitDx=0;exitDy=0;entryX=0.5;entryY=0;entryDx=0;entryDy=0;" parent="1" source="iuW7hz9HEa-le5su57v6-19" target="iuW7hz9HEa-le5su57v6-25" edge="1">
          <mxGeometry width="50" height="50" relative="1" as="geometry">
            <mxPoint x="366.88" y="365" as="sourcePoint" />
            <mxPoint x="340" y="400" as="targetPoint" />
          </mxGeometry>
        </mxCell>
        <mxCell id="iuW7hz9HEa-le5su57v6-29" value="" style="endArrow=classic;html=1;rounded=0;exitX=1;exitY=0.75;exitDx=0;exitDy=0;entryX=0.404;entryY=0.044;entryDx=0;entryDy=0;entryPerimeter=0;" parent="1" source="iuW7hz9HEa-le5su57v6-19" target="iuW7hz9HEa-le5su57v6-26" edge="1">
          <mxGeometry width="50" height="50" relative="1" as="geometry">
            <mxPoint x="453.75" y="353" as="sourcePoint" />
            <mxPoint x="438.8699999999999" y="400" as="targetPoint" />
          </mxGeometry>
        </mxCell>
        <mxCell id="iuW7hz9HEa-le5su57v6-31" value="" style="shape=flexArrow;endArrow=classic;html=1;rounded=0;entryX=0.375;entryY=0;entryDx=0;entryDy=0;exitX=0;exitY=0.75;exitDx=0;exitDy=0;" parent="1" source="iuW7hz9HEa-le5su57v6-16" target="iuW7hz9HEa-le5su57v6-19" edge="1">
          <mxGeometry width="50" height="50" relative="1" as="geometry">
            <mxPoint x="403.75" y="195" as="sourcePoint" />
            <mxPoint x="453.75" y="145" as="targetPoint" />
          </mxGeometry>
        </mxCell>
        <mxCell id="iuW7hz9HEa-le5su57v6-32" value="" style="shape=flexArrow;endArrow=classic;html=1;rounded=0;entryX=0.625;entryY=0;entryDx=0;entryDy=0;exitX=1;exitY=0.75;exitDx=0;exitDy=0;" parent="1" source="iuW7hz9HEa-le5su57v6-16" target="iuW7hz9HEa-le5su57v6-20" edge="1">
          <mxGeometry width="50" height="50" relative="1" as="geometry">
            <mxPoint x="638.28" y="117.66999999999999" as="sourcePoint" />
            <mxPoint x="580.0004301075269" y="317.3205376344086" as="targetPoint" />
          </mxGeometry>
        </mxCell>
        <mxCell id="DaqusL3dd0IqZaCaBjZz-1" value="Методы Table:&lt;br&gt;find, delete, insert&lt;br&gt;Полей нет" style="rounded=0;whiteSpace=wrap;html=1;" vertex="1" parent="1">
          <mxGeometry x="442.46999999999997" y="140" width="105.05" height="50" as="geometry" />
        </mxCell>
      </root>
    </mxGraphModel>
  </diagram>
</mxfile>
